<?xml version="1.0" encoding="utf-8"?>
<!-- Generator: Adobe Illustrator 25.3.1, SVG Export Plug-In . SVG Version: 6.00 Build 0)  -->
<svg version="1.1" id="Calque_1" xmlns="http://www.w3.org/2000/svg" xmlns:xlink="http://www.w3.org/1999/xlink" x="0px" y="0px"
	 viewBox="0 0 800 800" style="enable-background:new 0 0 800 800;" xml:space="preserve">
<style type="text/css">
	.st0{fill:#FFFFFF;}
	.st1{fill:#F6F4F2;}
	.st2{fill:#EDE9E6;}
	.st3{fill:#FBA03D;}
	.st4{fill:#F33F04;}
	.st5{fill:#AFAFAF;}
</style>
<g>
	<g id="Calque_1_1_">
		
			<image style="overflow:visible;opacity:0.1;enable-background:new    ;" width="793" height="794" xlink:href="735E80747BDA754A.png"  transform="matrix(1 0 0 1 3.5 3)">
		</image>
		<path class="st0" d="M400,18.5c210.7,0,381.5,170.8,381.5,381.5S610.7,781.5,400,781.5S18.5,610.7,18.5,400S189.3,18.5,400,18.5z"
			/>
		<path class="st1" d="M758.1,268.3c-38.7-105-121.5-187.7-226.4-226.4L400,400L758.1,268.3z"/>
		<path class="st0" d="M41.9,531.7c38.7,105,121.5,187.7,226.4,226.4L400,400L41.9,531.7z"/>
		<path class="st2" d="M284.5,582.4l-2.8-1.8l20.6-31.9l2.8,1.8L284.5,582.4z"/>
		<path class="st2" d="M269.5,572l-2.6-2l23.2-30l2.7,2L269.5,572z"/>
		<path class="st2" d="M255.5,560.3l-2.5-2.3l25.6-28l2.5,2.3L255.5,560.3z"/>
		<path class="st2" d="M242.5,547.6l-2.3-2.5l27.9-25.8l2.3,2.5L242.5,547.6z"/>
		<path class="st2" d="M230.6,533.8l-2.1-2.7l30-23.3l2.1,2.6L230.6,533.8z"/>
		<path class="st2" d="M219.9,519.1l-1.8-2.8l31.8-20.7l1.8,2.8L219.9,519.1z"/>
		<path class="st2" d="M210.5,503.4l-1.6-3l33.5-17.9l1.6,3L210.5,503.4z"/>
		<path class="st2" d="M202.4,487.1l-1.3-3.1l34.9-15l1.3,3L202.4,487.1z"/>
		<path class="st2" d="M195.8,470.1l-1.1-3.2l36-12l1.1,3.2L195.8,470.1z"/>
		<path class="st2" d="M190.6,452.6l-0.8-3.3l36.9-8.9l0.8,3.3L190.6,452.6z"/>
		<path class="st2" d="M186.9,434.7l-0.5-3.3l37.5-5.8l0.5,3.4L186.9,434.7z"/>
		<path class="st2" d="M184.8,416.7l-0.2-3.4l37.9-2.6l0.2,3.4L184.8,416.7z"/>
		<path class="st2" d="M184.2,398.5l0.1-3.4l38,0.6l-0.1,3.4L184.2,398.5z"/>
		<path class="st2" d="M185.1,380.2l0.3-3.3l37.8,3.8l-0.3,3.3L185.1,380.2z"/>
		<path class="st2" d="M187.5,362.2l0.6-3.3l37.3,6.9l-0.6,3.3L187.5,362.2z"/>
		<path class="st2" d="M191.4,344.4l0.9-3.2l36.6,10l-0.9,3.2L191.4,344.4z"/>
		<path class="st2" d="M196.9,327l1.2-3.1l35.6,13.1l-1.1,3.1L196.9,327z"/>
		<path class="st2" d="M203.7,310.1l1.4-3l34.4,16.1l-1.4,3L203.7,310.1z"/>
		<path class="st2" d="M212,293.9l1.7-2.9l32.9,19l-1.7,2.9L212,293.9z"/>
		<path class="st2" d="M221.7,278.4l1.9-2.8l31.2,21.7l-1.9,2.8L221.7,278.4z"/>
		<path class="st2" d="M232.6,263.8l2.1-2.6l29.2,24.2l-2.1,2.6L232.6,263.8z"/>
		<path class="st2" d="M244.5,250.4l2.3-2.4l27.3,26.4l-2.3,2.4L244.5,250.4z"/>
		<path class="st2" d="M257.9,237.6l2.5-2.2l24.8,28.7l-2.5,2.2L257.9,237.6z"/>
		<path class="st2" d="M272,226.2l2.7-2L297,255l-2.7,2L272,226.2z"/>
		<path class="st2" d="M287.2,216l2.9-1.7l19.6,32.5l-2.9,1.7L287.2,216z"/>
		<path class="st2" d="M303.1,207.1l3-1.5l16.8,34.1l-3,1.5L303.1,207.1z"/>
		<path class="st2" d="M319.8,199.6l3.1-1.2l13.8,35.4l-3.1,1.2L319.8,199.6z"/>
		<path class="st2" d="M337,193.6l3.2-1L351,229l-3.2,0.9L337,193.6z"/>
		<path class="st2" d="M354.6,189l3.3-0.7l7.7,37.2l-3.3,0.7L354.6,189z"/>
		<path class="st2" d="M372.6,186l3.3-0.4l4.5,37.7l-3.3,0.4L372.6,186z"/>
		<path class="st2" d="M390.7,184.4l3.4-0.1l1.3,37.9l-3.4,0.1L390.7,184.4z"/>
		<path class="st2" d="M408.9,184.4l3.4,0.2l-1.9,37.9l-3.4-0.2L408.9,184.4z"/>
		<path class="st2" d="M427.1,185.9l3.3,0.4l-5,37.6l-3.3-0.4L427.1,185.9z"/>
		<path class="st2" d="M445,189l3.3,0.7l-8.2,37.1l-3.3-0.7L445,189z"/>
		<path class="st2" d="M462.7,193.5l3.2,1l-11.3,36.2l-3.2-1L462.7,193.5z"/>
		<path class="st2" d="M479.9,199.5l3.1,1.3L468.7,236l-3.1-1.3L479.9,199.5z"/>
		<path class="st2" d="M496.6,207l3,1.5l-17.3,33.8l-3-1.5L496.6,207z"/>
		<path class="st2" d="M512.5,215.8l2.8,1.8l-20.1,32.2l-2.8-1.8L512.5,215.8z"/>
		<path class="st2" d="M527.7,226l2.7,2l-22.7,30.4l-2.7-2L527.7,226z"/>
		<path class="st2" d="M541.9,237.4l2.5,2.2L519.2,268l-2.5-2.2L541.9,237.4z"/>
		<path class="st2" d="M555,249.9l2.3,2.4l-27.5,26.2l-2.3-2.4L555,249.9z"/>
		<path class="st2" d="M567.2,263.5l2.1,2.6L539.7,290l-2.1-2.6L567.2,263.5z"/>
		<path class="st2" d="M578.1,278.1l1.9,2.8l-31.5,21.2l-1.9-2.8L578.1,278.1z"/>
		<path class="st2" d="M587.8,293.6l1.6,2.9L556.2,315l-1.6-2.9L587.8,293.6z"/>
		<path class="st2" d="M596.1,309.8l1.4,3.1l-34.6,15.6l-1.4-3.1L596.1,309.8z"/>
		<path class="st2" d="M603,326.7l1.1,3.2l-35.8,12.6l-1.1-3.2L603,326.7z"/>
		<path class="st2" d="M608.5,344.1l0.8,3.2l-36.8,9.5l-0.8-3.2L608.5,344.1z"/>
		<path class="st2" d="M612.4,361.9l0.6,3.3l-37.4,6.4l-0.6-3.3L612.4,361.9z"/>
		<path class="st2" d="M614.9,380l0.3,3.3l-37.8,3.2l-0.3-3.3L614.9,380z"/>
		<path class="st2" d="M615.8,398.1v3.4h-38v-3.4H615.8z"/>
		<path class="st2" d="M615.2,416.4l-0.3,3.4l-37.8-3.2l0.3-3.4L615.2,416.4z"/>
		<path class="st2" d="M613,434.4l-0.6,3.3l-37.4-6.3l0.6-3.3L613,434.4z"/>
		<path class="st2" d="M609.4,452.3l-0.8,3.2l-36.8-9.4l0.8-3.2L609.4,452.3z"/>
		<path class="st2" d="M604.3,469.8l-1.1,3.2l-35.8-12.5l1.1-3.2L604.3,469.8z"/>
		<path class="st2" d="M597.7,486.8l-1.4,3.1l-34.7-15.5l1.4-3.1L597.7,486.8z"/>
		<path class="st2" d="M589.6,503.1l-1.6,2.9l-33.2-18.4l1.6-2.9L589.6,503.1z"/>
		<path class="st2" d="M580.2,518.8l-1.9,2.8l-31.5-21.2l1.9-2.8L580.2,518.8z"/>
		<path class="st2" d="M569.5,533.6l-2.1,2.6l-29.6-23.8l2.1-2.6L569.5,533.6z"/>
		<path class="st2" d="M557.7,547.4l-2.3,2.4l-27.5-26.2l2.3-2.4L557.7,547.4z"/>
		<path class="st2" d="M544.7,560.1l-2.5,2.2L517,534l2.5-2.2L544.7,560.1z"/>
		<path class="st2" d="M530.7,571.8l-2.7,2l-22.8-30.4l2.7-2L530.7,571.8z"/>
		<path class="st2" d="M515.8,582.2l-2.8,1.8l-20.2-32.2l2.9-1.8L515.8,582.2z"/>
		<path class="st2" d="M500,591.4l-3,1.5l-17.3-33.8l3-1.5L500,591.4z"/>
		<path class="st2" d="M483.4,599.1l-3.1,1.3l-14.4-35.1l3.1-1.3L483.4,599.1z"/>
		<path class="st2" d="M466.4,605.5l-3.2,1l-11.4-36.2l3.2-1L466.4,605.5z"/>
		<path class="st2" d="M448.8,610.3l-3.3,0.7l-8.3-37l3.3-0.7L448.8,610.3z"/>
		<path class="st2" d="M430.9,613.7l-3.3,0.5l-5.1-37.6l3.3-0.5L430.9,613.7z"/>
		<path class="st2" d="M412.8,615.5l-3.4,0.2l-1.9-37.9l3.4-0.2L412.8,615.5z"/>
		<path class="st2" d="M394.5,615.8l-3.4-0.1l1.2-38l3.4,0.1L394.5,615.8z"/>
		<path class="st2" d="M376.4,614.6l-3.3-0.4l4.5-37.7l3.3,0.4L376.4,614.6z"/>
		<path class="st2" d="M358.4,611.8l-3.3-0.7l7.6-37.2l3.3,0.7L358.4,611.8z"/>
		<path class="st2" d="M340.6,607.6l-3.2-0.9l10.7-36.4l3.2,1L340.6,607.6z"/>
		<path class="st2" d="M323.3,601.9l-3.1-1.2l13.7-35.4l3.1,1.2L323.3,601.9z"/>
		<path class="st2" d="M306.6,594.7l-3-1.5l16.7-34.1l3,1.5L306.6,594.7z"/>
		<circle class="st2" cx="400" cy="400" r="180.9"/>
		
			<image style="overflow:visible;opacity:0.1;enable-background:new    ;" width="365" height="366" xlink:href="735E80747BDA754E.png"  transform="matrix(1 0 0 1 217.5 217)">
		</image>
		<path class="st0" d="M281.7,518.3c-65.3-65.3-65.3-171.3,0-236.6s171.3-65.3,236.6,0s65.3,171.3,0,236.6c0,0,0,0,0,0
			C453,583.7,347,583.7,281.7,518.3z"/>
		<circle class="st3" cx="400" cy="400" r="88.3"/>
		<circle class="st4" cx="400" cy="400" r="78.5"/>
		<path class="st4" d="M391.5,219.3h-0.2c-1.4,0.1-2.8,0.1-4.1,0.2H387c-1.4,0.1-2.8,0.2-4.2,0.4h-0.1c-1.4,0.1-2.9,0.3-4.3,0.5l0,0
			c-40.2,4.8-77.7,23-106.3,51.7c-70.5,70.5-70.6,184.8-0.4,255.5l9.6-9.6c-64.7-66-63.7-171.9,2.3-236.6
			c65.1-63.8,169.2-63.8,234.3,0l9.6-9.6l-1.7-1.6c-0.5-0.5-0.9-0.9-1.4-1.4l-2-1.8l-1.4-1.3c-0.7-0.6-1.3-1.2-2-1.8l-1.5-1.3
			c-0.7-0.6-1.4-1.1-2-1.7c-0.5-0.4-1-0.8-1.5-1.2c-0.7-0.6-1.4-1.1-2.1-1.6l-1.5-1.2c-0.7-0.5-1.4-1.1-2.1-1.6l-1.5-1.1l-2.1-1.5
			l-1.5-1.1c-0.7-0.5-1.5-1-2.2-1.5l-1.5-1c-0.7-0.5-1.5-1-2.2-1.4c-0.5-0.3-1-0.7-1.5-1l-2.3-1.4l-1.5-0.9l-2.3-1.3l-1.5-0.9
			c-0.8-0.4-1.6-0.9-2.4-1.3c-0.5-0.3-1-0.6-1.5-0.8c-0.8-0.4-1.6-0.8-2.4-1.2l-1.5-0.8c-0.8-0.4-1.7-0.8-2.5-1.2
			c-0.5-0.2-1-0.5-1.5-0.7c-0.8-0.4-1.7-0.8-2.5-1.1L472,234c-0.9-0.4-1.7-0.7-2.6-1.1l-1.4-0.6c-0.9-0.4-1.8-0.7-2.7-1l-1.4-0.6
			l-2.7-1l-1.4-0.5l-2.8-0.9l-1.4-0.4c-1-0.3-1.9-0.6-2.9-0.9l-1.3-0.4l-3-0.8l-1.2-0.4c-1-0.3-2-0.5-3-0.8l-1.2-0.3
			c-1-0.2-2.1-0.5-3.1-0.7l-1.1-0.3c-1.1-0.2-2.1-0.4-3.2-0.7l-1.1-0.2c-1.1-0.2-2.2-0.4-3.2-0.6l-1-0.2c-1.1-0.2-2.2-0.4-3.4-0.5
			l-0.9-0.1l-3.5-0.4l-0.8-0.1c-1.2-0.1-2.4-0.3-3.5-0.4l-0.8-0.1c-1.2-0.1-2.4-0.2-3.6-0.3l-0.7-0.1c-1.2-0.1-2.5-0.2-3.7-0.2h-0.6
			c-1.3-0.1-2.5-0.1-3.8-0.1h-0.5c-1.3,0-2.6,0-3.9-0.1H400c-1.3,0-2.7,0-4,0.1h-0.3C394.3,219.1,392.9,219.2,391.5,219.3z"/>
		<path class="st2" d="M580.7,408.5c0,0.1,0,0.2,0,0.2c-0.1,1.4-0.2,2.8-0.2,4.1c0,0.1,0,0.1,0,0.2c-0.1,1.4-0.2,2.8-0.3,4.2
			c0,0,0,0.1,0,0.1c-0.1,1.4-0.3,2.9-0.5,4.3l0,0c-4.8,40.2-23,77.7-51.7,106.3c-70.5,70.5-184.8,70.7-255.5,0.4l9.6-9.6
			c66,64.7,171.9,63.7,236.6-2.3c63.8-65.1,63.8-169.2,0-234.3l9.6-9.6l1.6,1.7c0.5,0.5,0.9,0.9,1.4,1.4l1.8,2
			c0.4,0.5,0.9,1,1.3,1.4c0.6,0.7,1.2,1.3,1.8,2l1.3,1.5c0.6,0.7,1.1,1.4,1.7,2c0.4,0.5,0.8,1,1.2,1.5c0.6,0.7,1.1,1.4,1.7,2.1
			l1.2,1.5c0.5,0.7,1.1,1.4,1.6,2.1c0.4,0.5,0.8,1,1.1,1.5c0.5,0.7,1,1.4,1.5,2.1c0.4,0.5,0.7,1,1.1,1.5c0.5,0.7,1,1.5,1.5,2.2
			c0.3,0.5,0.7,1,1,1.5c0.5,0.7,1,1.5,1.4,2.2c0.3,0.5,0.7,1,1,1.5c0.5,0.8,0.9,1.5,1.4,2.3l0.9,1.5c0.5,0.8,0.9,1.5,1.3,2.3
			c0.3,0.5,0.6,1,0.9,1.5c0.4,0.8,0.9,1.6,1.3,2.4c0.3,0.5,0.6,1,0.8,1.5c0.4,0.8,0.8,1.6,1.2,2.4c0.3,0.5,0.5,1,0.8,1.5
			c0.4,0.8,0.8,1.7,1.2,2.5c0.2,0.5,0.5,1,0.7,1.5c0.4,0.8,0.8,1.7,1.2,2.5c0.2,0.5,0.4,1,0.7,1.5c0.4,0.9,0.7,1.7,1.1,2.6l0.6,1.4
			c0.4,0.9,0.7,1.8,1,2.7c0.2,0.5,0.4,1,0.6,1.4c0.3,0.9,0.7,1.8,1,2.7c0.2,0.5,0.3,0.9,0.5,1.4c0.3,0.9,0.6,1.9,0.9,2.8
			c0.2,0.5,0.3,0.9,0.5,1.4c0.3,1,0.6,1.9,0.9,2.9c0.1,0.4,0.3,0.9,0.4,1.3c0.3,1,0.6,2,0.8,3c0.1,0.4,0.2,0.8,0.3,1.2
			c0.3,1,0.5,2,0.8,3c0.1,0.4,0.2,0.8,0.3,1.2c0.2,1,0.5,2.1,0.7,3.1c0.1,0.4,0.2,0.8,0.3,1.1c0.2,1.1,0.4,2.1,0.7,3.2l0.2,1.1
			c0.2,1.1,0.4,2.2,0.6,3.2c0.1,0.4,0.1,0.7,0.2,1c0.2,1.1,0.4,2.2,0.5,3.4l0.2,0.9c0.2,1.2,0.3,2.3,0.5,3.5c0,0.3,0.1,0.5,0.1,0.8
			c0.1,1.2,0.3,2.4,0.4,3.5l0.1,0.8c0.1,1.2,0.2,2.4,0.3,3.6l0.1,0.7c0.1,1.2,0.2,2.5,0.2,3.7v0.6c0.1,1.3,0.1,2.5,0.1,3.8
			c0,0.2,0,0.4,0,0.5c0,1.3,0,2.6,0,3.9v0.4c0,1.3,0,2.7,0,4v0.3C580.8,405.7,580.8,407.1,580.7,408.5z"/>
		
			<image style="overflow:visible;enable-background:new    ;" width="191" height="190" xlink:href="735E80747BDA7549.png"  transform="matrix(1 0 0 1 307.5 308)">
		</image>
		<polygon class="st2" points="380.3,380.4 238.1,561.8 400,400 		"/>
		<polygon class="st5" points="419.6,419.7 400,400 238.1,561.9 		"/>
		<polygon class="st3" points="419.7,419.6 561.9,238.2 400,400 		"/>
		<polygon class="st4" points="380.4,380.3 400,400 561.8,238.1 		"/>
		<path class="st2" d="M326.7,48.1c-0.5-2.4,1.1-4.6,3.4-5.1c2.4-0.5,4.6,1.1,5.1,3.4s-1.1,4.6-3.4,5.1c0,0,0,0,0,0
			c-2.3,0.5-4.5-1-5-3.2C326.7,48.3,326.7,48.2,326.7,48.1z"/>
		<path class="st2" d="M373.1,41.6c-0.1-2.4,1.7-4.4,4.1-4.6s4.4,1.7,4.6,4.1c0.1,2.4-1.7,4.4-4.1,4.6c-2.3,0.2-4.4-1.5-4.6-3.9
			C373.1,41.8,373.1,41.7,373.1,41.6z"/>
		<path class="st2" d="M419.9,41.2c0.2-2.4,2.2-4.2,4.6-4c2.4,0.2,4.2,2.2,4,4.6c-0.2,2.4-2.2,4.2-4.6,4c0,0,0,0,0,0
			c-2.3-0.1-4.1-2.1-4-4.5C419.9,41.3,419.9,41.2,419.9,41.2z"/>
		<path class="st2" d="M466.4,46.7c0.5-2.4,2.7-3.9,5.1-3.4c2.4,0.5,3.9,2.7,3.4,5.1c-0.5,2.4-2.7,3.9-5.1,3.4c0,0,0,0,0,0
			c-2.3-0.4-3.9-2.6-3.4-4.9C466.4,46.9,466.4,46.8,466.4,46.7z"/>
		<path class="st2" d="M511.8,58.3c0.8-2.3,3.2-3.5,5.5-2.7c2.3,0.8,3.5,3.2,2.7,5.5c-0.8,2.3-3.2,3.5-5.5,2.7
			c-2.2-0.7-3.5-3-2.8-5.3C511.7,58.5,511.7,58.4,511.8,58.3z"/>
		<path class="st2" d="M555.2,75.7c1.1-2.1,3.7-3,5.8-2c2.1,1.1,3,3.7,2,5.8c-1.1,2.1-3.6,3-5.8,2c-2.1-1-3.1-3.5-2.1-5.6
			C555.1,75.9,555.2,75.8,555.2,75.7z"/>
		<path class="st2" d="M596,98.7c1.3-2,4-2.5,6-1.2s2.5,4,1.2,6s-4,2.5-6,1.2c0,0,0,0,0,0c-2-1.3-2.6-3.9-1.3-5.9
			C595.9,98.8,596,98.7,596,98.7z"/>
		<path class="st2" d="M633.5,126.7c1.6-1.8,4.3-2,6.1-0.4c1.8,1.6,2,4.3,0.4,6.1c-1.6,1.8-4.3,2-6.1,0.4c0,0,0,0,0,0
			c-1.8-1.5-2-4.2-0.5-6C633.4,126.8,633.5,126.8,633.5,126.7z"/>
		<path class="st2" d="M667,159.4c1.8-1.6,4.5-1.4,6.1,0.4s1.4,4.5-0.4,6.1c-1.8,1.6-4.5,1.4-6.1-0.4c0,0,0,0,0,0
			c-1.6-1.7-1.5-4.4,0.2-6C666.9,159.5,667,159.4,667,159.4z"/>
		<path class="st2" d="M696,196.1c2-1.3,4.7-0.8,6,1.2s0.8,4.7-1.2,6c-2,1.3-4.7,0.8-6-1.2c0,0,0,0,0,0c-1.3-1.9-0.9-4.6,1-5.9
			C695.9,196.2,696,196.1,696,196.1z"/>
		<path class="st2" d="M720.1,236.3c2.1-1.1,4.8-0.2,5.8,1.9c1.1,2.1,0.2,4.8-1.9,5.8c-2.1,1.1-4.8,0.2-5.8-1.9c0,0,0,0,0,0
			c-1.1-2.1-0.3-4.6,1.8-5.7C719.9,236.3,720,236.3,720.1,236.3z"/>
		<path class="st2" d="M738.6,279.3c2.3-0.8,4.7,0.4,5.5,2.7c0.8,2.3-0.4,4.7-2.7,5.5c-2.3,0.8-4.7-0.4-5.5-2.7c0,0,0,0,0,0
			c-0.8-2.2,0.3-4.6,2.5-5.5C738.5,279.3,738.6,279.3,738.6,279.3z"/>
		<path class="st2" d="M751.4,324.3c2.3-0.5,4.6,1,5.1,3.4s-1,4.6-3.4,5.1s-4.6-1-5.1-3.4c0,0,0,0,0,0c-0.5-2.3,0.9-4.6,3.2-5.1
			C751.3,324.3,751.4,324.3,751.4,324.3z"/>
		<path class="st2" d="M758.2,370.6c2.4-0.2,4.5,1.6,4.7,4c0.2,2.4-1.6,4.5-4,4.7c-2.4,0.2-4.5-1.6-4.7-4c0,0,0,0,0,0
			c-0.2-2.3,1.5-4.4,3.8-4.6C758.1,370.6,758.2,370.6,758.2,370.6z"/>
		<path class="st2" d="M759,417.4c2.4,0.1,4.2,2.2,4.1,4.6c-0.1,2.4-2.2,4.2-4.6,4.1c-2.4-0.1-4.2-2.2-4.1-4.6c0,0,0,0,0,0
			c0.1-2.3,2.1-4.2,4.4-4.1C758.8,417.4,758.9,417.4,759,417.4z"/>
		<path class="st2" d="M753.7,464c2.4,0.5,3.9,2.7,3.4,5.1c-0.5,2.4-2.7,3.9-5.1,3.4c-2.4-0.5-3.9-2.7-3.4-5.1c0,0,0,0,0,0
			c0.4-2.3,2.6-3.9,4.9-3.5C753.6,464,753.6,464,753.7,464z"/>
		<path class="st2" d="M742.4,509.4c2.3,0.8,3.5,3.2,2.7,5.5c-0.8,2.3-3.2,3.5-5.5,2.7c-2.3-0.8-3.5-3.2-2.7-5.5
			c0.7-2.2,3.1-3.5,5.3-2.8C742.3,509.3,742.4,509.3,742.4,509.4z"/>
		<path class="st2" d="M725.3,552.9c2.2,1,3.1,3.6,2,5.8c-1,2.2-3.6,3.1-5.8,2c-2.2-1-3.1-3.6-2-5.8c0,0,0,0,0,0
			c1-2.1,3.5-3.1,5.6-2.1C725.1,552.8,725.2,552.9,725.3,552.9z"/>
		<path class="st2" d="M702.6,593.8c2,1.3,2.6,4,1.2,6c-1.3,2-4,2.6-6,1.2s-2.6-4-1.2-6c0,0,0,0,0,0c1.2-2,3.8-2.6,5.8-1.3
			C702.5,593.8,702.5,593.8,702.6,593.8z"/>
		<path class="st2" d="M674.8,631.5c1.8,1.6,2,4.3,0.4,6.1c-1.6,1.8-4.3,2-6.1,0.4c-1.8-1.6-2-4.3-0.4-6.1c0,0,0,0,0,0
			c1.5-1.8,4.2-2.1,6-0.6C674.7,631.4,674.7,631.5,674.8,631.5z"/>
		<path class="st2" d="M642.3,665.3c1.6,1.8,1.4,4.5-0.4,6.1c-1.8,1.6-4.5,1.4-6.1-0.4c-1.6-1.8-1.4-4.5,0.3-6.1
			c1.7-1.6,4.4-1.5,6,0.2C642.3,665.2,642.3,665.2,642.3,665.3z"/>
		<path class="st2" d="M605.8,694.5c1.4,2,0.9,4.7-1.1,6c-2,1.4-4.7,0.9-6-1.1c-1.4-2-0.9-4.7,1.1-6c0,0,0,0,0,0
			c1.9-1.4,4.6-0.9,5.9,1C605.7,694.5,605.8,694.5,605.8,694.5z"/>
		<path class="st2" d="M565.8,718.8c1.1,2.1,0.2,4.7-1.9,5.8c-2.1,1.1-4.7,0.2-5.8-1.9c-1.1-2.1-0.2-4.7,1.9-5.8c0,0,0,0,0,0
			c2.1-1.1,4.6-0.3,5.7,1.8C565.7,718.7,565.7,718.7,565.8,718.8z"/>
		<path class="st2" d="M522.9,737.7c0.8,2.3-0.4,4.7-2.6,5.5c-2.3,0.8-4.7-0.4-5.5-2.6c-0.8-2.3,0.4-4.7,2.6-5.5c0,0,0,0,0,0
			c2.2-0.8,4.6,0.3,5.5,2.4C522.9,737.5,522.9,737.6,522.9,737.7z"/>
		<path class="st2" d="M478,750.7c0.5,2.3-1,4.6-3.4,5.1s-4.6-1-5.1-3.4c-0.5-2.3,1-4.6,3.4-5.1c0,0,0,0,0,0
			c2.3-0.5,4.6,0.9,5.1,3.2C478,750.6,478,750.7,478,750.7z"/>
		<path class="st2" d="M431.7,757.8c0.2,2.4-1.6,4.5-4,4.7c-2.4,0.2-4.5-1.6-4.7-4s1.6-4.5,4-4.7c0,0,0,0,0,0
			c2.3-0.2,4.4,1.5,4.6,3.8C431.7,757.7,431.7,757.7,431.7,757.8z"/>
		<path class="st2" d="M384.9,758.9c-0.1,2.4-2.2,4.2-4.6,4.1c-2.4-0.1-4.2-2.2-4.1-4.6c0.1-2.4,2.2-4.2,4.6-4.1
			c2.3,0.1,4.2,2,4.1,4.3C384.9,758.7,384.9,758.8,384.9,758.9z"/>
		<path class="st2" d="M338.4,753.9c-0.4,2.4-2.7,3.9-5.1,3.5c-2.4-0.4-3.9-2.7-3.5-5.1c0.4-2.4,2.7-3.9,5.1-3.5c0,0,0,0,0,0
			c2.3,0.4,3.9,2.6,3.5,4.9C338.4,753.8,338.4,753.8,338.4,753.9z"/>
		<path class="st2" d="M292.9,742.9c-0.7,2.3-3.2,3.5-5.5,2.8c-2.3-0.7-3.5-3.2-2.8-5.5s3.2-3.5,5.5-2.8c0,0,0,0,0,0
			c2.2,0.7,3.5,3,2.8,5.3C292.9,742.8,292.9,742.8,292.9,742.9z"/>
		<path class="st2" d="M249.2,726c-1,2.2-3.6,3.1-5.8,2c-2.2-1-3.1-3.6-2-5.8c1-2.2,3.6-3.1,5.8-2c0,0,0,0,0,0
			c2.1,1,3.1,3.5,2.1,5.6C249.2,725.9,249.2,725.9,249.2,726z"/>
		<path class="st2" d="M208.1,703.6c-1.3,2-4,2.6-6,1.3s-2.6-4-1.3-6s4-2.6,6-1.3c0,0,0,0,0,0c2,1.2,2.6,3.9,1.4,5.9
			C208.2,703.5,208.2,703.6,208.1,703.6z"/>
		<path class="st2" d="M170.3,676c-1.6,1.8-4.3,2-6.1,0.5s-2-4.3-0.5-6.1c1.6-1.8,4.3-2,6.1-0.5c1.8,1.5,2.1,4.1,0.6,6
			C170.4,675.9,170.3,676,170.3,676z"/>
		<path class="st2" d="M136.3,643.8c-1.8,1.6-4.5,1.5-6.1-0.3c-1.6-1.8-1.5-4.5,0.3-6.1s4.5-1.5,6.1,0.3c0,0,0,0,0,0
			c1.6,1.7,1.5,4.4-0.2,6C136.4,643.7,136.4,643.8,136.3,643.8z"/>
		<path class="st2" d="M106.8,607.4c-2,1.4-4.7,0.9-6-1.1c-1.4-2-0.9-4.7,1.1-6c2-1.4,4.7-0.9,6,1.1c0,0,0,0,0,0
			c1.4,1.9,0.9,4.5-0.9,5.9C106.9,607.4,106.9,607.4,106.8,607.4z"/>
		<path class="st2" d="M82.3,567.6c-2.1,1.1-4.7,0.3-5.8-1.9c-1.1-2.1-0.3-4.7,1.9-5.8s4.7-0.3,5.8,1.9c0,0,0,0,0,0
			c1.1,2.1,0.4,4.6-1.7,5.7C82.4,567.5,82.3,567.5,82.3,567.6z"/>
		<path class="st2" d="M63.2,524.8c-2.3,0.8-4.7-0.4-5.5-2.6s0.4-4.7,2.6-5.5c2.2-0.8,4.7,0.4,5.5,2.6c0.8,2.2-0.2,4.6-2.4,5.5
			C63.3,524.8,63.2,524.8,63.2,524.8z"/>
		<path class="st2" d="M49.8,480c-2.3,0.5-4.7-1-5.2-3.3c-0.5-2.3,1-4.7,3.3-5.2c2.3-0.5,4.7,1,5.2,3.3c0,0,0,0,0,0
			c0.5,2.3-0.8,4.6-3.1,5.1C50,480,49.9,480,49.8,480z"/>
		<path class="st2" d="M42.4,433.8c-2.4,0.2-4.5-1.6-4.7-4s1.6-4.5,4-4.7c2.4-0.2,4.5,1.6,4.7,4c0.3,2.3-1.4,4.4-3.8,4.7
			C42.6,433.8,42.5,433.8,42.4,433.8z"/>
		<path class="st2" d="M41.1,387c-2.4-0.1-4.2-2.1-4.1-4.5c0.1-2.4,2.1-4.2,4.5-4.1c2.4,0.1,4.2,2.1,4.1,4.5c0,0,0,0,0,0
			c-0.1,2.3-2,4.2-4.4,4.1C41.2,387,41.1,387,41.1,387z"/>
		<path class="st2" d="M45.8,340.4c-2.4-0.4-4-2.6-3.5-5c0.4-2.4,2.6-4,5-3.5s4,2.6,3.5,5c0,0,0,0,0,0c-0.4,2.3-2.5,3.9-4.9,3.5
			C45.9,340.4,45.8,340.4,45.8,340.4z"/>
		<path class="st2" d="M56.5,294.8c-2.3-0.7-3.6-3.1-2.9-5.4c0.7-2.3,3.1-3.6,5.4-2.9c2.3,0.7,3.6,3.1,2.9,5.4c0,0,0,0,0,0
			c-0.6,2.2-3,3.5-5.2,2.9C56.6,294.9,56.6,294.8,56.5,294.8z"/>
		<path class="st2" d="M73,251.1c-2.2-1-3.1-3.6-2.1-5.8c1-2.2,3.6-3.1,5.8-2.1c2.2,1,3.1,3.6,2.1,5.8c0,0,0,0,0,0
			c-1,2.1-3.5,3.1-5.6,2.2C73.1,251.1,73.1,251.1,73,251.1z"/>
		<path class="st2" d="M95.2,209.8c-2-1.3-2.6-4-1.3-6c1.3-2,4-2.6,6-1.3c2,1.3,2.6,4,1.3,6c-1.2,2-3.8,2.6-5.8,1.4
			C95.3,209.9,95.3,209.9,95.2,209.8z"/>
		<path class="st2" d="M122.5,171.8c-1.8-1.5-2.1-4.3-0.5-6.1c1.5-1.8,4.3-2.1,6.1-0.5c1.8,1.5,2.1,4.3,0.5,6.1c0,0,0,0,0,0
			c-1.5,1.8-4.1,2.1-5.9,0.7C122.6,171.9,122.6,171.9,122.5,171.8z"/>
		<path class="st2" d="M154.5,137.7c-1.6-1.8-1.5-4.5,0.3-6.1c1.8-1.6,4.5-1.5,6.1,0.3s1.5,4.5-0.3,6.1c0,0,0,0,0,0
			c-1.7,1.6-4.4,1.6-6-0.1C154.6,137.8,154.5,137.7,154.5,137.7z"/>
		<path class="st2" d="M190.7,107.9c-1.4-2-0.9-4.7,1-6.1c2-1.4,4.7-0.9,6.1,1c1.4,2,0.9,4.7-1,6.1c0,0,0,0-0.1,0
			c-1.9,1.4-4.5,0.9-5.9-0.9C190.8,108,190.7,108,190.7,107.9z"/>
		<path class="st2" d="M230.4,83.2c-1.1-2.1-0.3-4.7,1.8-5.9s4.7-0.3,5.9,1.8c1.1,2.1,0.3,4.7-1.8,5.9c0,0,0,0,0,0
			c-2.1,1.1-4.6,0.4-5.8-1.7C230.5,83.3,230.4,83.2,230.4,83.2z"/>
		<path class="st2" d="M273,63.8c-0.8-2.3,0.3-4.7,2.6-5.6c2.3-0.8,4.7,0.3,5.6,2.6c0.8,2.3-0.3,4.7-2.6,5.6c0,0,0,0,0,0
			c-2.2,0.9-4.6-0.2-5.5-2.4C273.1,63.9,273.1,63.8,273,63.8z"/>
		<path class="st3" d="M391.5,124.1h-7.9V83.9h7.2l22.9,27.6V83.9h7.9v40.2h-7.3l-22.7-27.3V124.1z"/>
		<path class="st3" d="M573.7,183.6l-5.6-5.6l28.5-28.4l5.1,5.1l-3.4,35.7l19.5-19.5l5.6,5.6l-28.5,28.4l-5.2-5.1l3.2-35.4
			L573.7,183.6z"/>
		<path class="st3" d="M622,231.9l-21.1-21.1l28.5-28.4l20.8,20.8l-4.9,4.9L630,192.8l-6.5,6.6l13.3,13.3l-4.9,4.9l-13.3-13.3
			l-7.2,7.2l15.5,15.5L622,231.9z"/>
		<path class="st3" d="M716.1,407.5h-29.9v-40.2h29.4v6.9h-21.5v9.3H713v6.9h-18.8v10.2h22L716.1,407.5z"/>
		<path class="st3" d="M592.4,599.6l4.5,5.5c-2.3,0.6-6.9,3.3-10,6.3s-4.3,6.2-1.9,8.5s4.8,0.8,7.3-0.5l5.3-2.8
			c6-3.2,10.7-3.9,15,0.5c5,5,4.4,12.9-2,19.3c-4,4-9.5,7.5-12.5,8.3l-4.6-5.5c2.3-0.5,8.1-3.8,11.6-7.3c3-3,4.3-6.4,1.9-8.7
			c-1.8-1.8-3.7-1.5-6.7,0.2l-5.7,3.2c-4.6,2.6-10.3,4.4-15-0.3c-5.3-5.3-4.7-12.8,1.9-19.4C584.6,603.7,588.3,601.2,592.4,599.6z"
			/>
		<path class="st3" d="M646.3,599.8L625.2,621l-28.5-28.5l20.8-20.8l4.9,4.9l-15.2,15.2l6.6,6.5l13.3-13.3l4.9,4.9l-13.3,13.3
			l7.2,7.2l15.6-15.5L646.3,599.8z"/>
		<path class="st3" d="M415.4,677.2l-0.7,7.1c-2.1-1.2-7.2-2.6-11.5-2.6s-7.4,1.3-7.4,4.7s2.8,3.9,5.5,4.8l5.7,1.7
			c6.6,2,10.3,4.8,10.3,11c0,7.1-6,12.3-15.1,12.3c-5.6,0-12-1.4-14.7-3l0.6-7.1c2,1.2,8.4,3,13.4,3c4.2,0,7.5-1.5,7.5-4.8
			c0-2.5-1.5-3.7-4.9-4.6l-6.3-1.7c-5.1-1.4-10.4-4.2-10.4-10.9c0-7.4,5.8-12.3,15-12.3C407,674.6,411.4,675.4,415.4,677.2z"/>
		<path class="st3" d="M196.8,588.8l-5.5,4.5c-0.6-2.3-3.3-6.9-6.3-10s-6.1-4.3-8.5-1.9s-0.8,4.8,0.5,7.3l2.8,5.3
			c3.2,6,3.9,10.7-0.5,15c-5,5-12.9,4.4-19.3-2c-4-4-7.4-9.5-8.3-12.5l5.5-4.6c0.5,2.3,3.8,8.1,7.3,11.6c3,3,6.4,4.3,8.7,1.9
			c1.8-1.8,1.6-3.7-0.2-6.7l-3.2-5.7c-2.6-4.6-4.4-10.3,0.4-15c5.3-5.3,12.8-4.7,19.4,1.9C192.8,581,195.2,584.7,196.8,588.8z"/>
		<path class="st3" d="M217.7,606.2c8.7,8.7,8.8,21,0.2,29.6s-20.8,8.4-29.4-0.3s-8.9-20.8-0.3-29.4S209.1,597.5,217.7,606.2z
			 M193.7,630.2c5.5,5.5,12.9,5.3,18.5-0.2s5.8-13.1,0.3-18.5s-13-5.2-18.5,0.3S188.3,624.8,193.7,630.2L193.7,630.2z"/>
		<path class="st3" d="M104.9,366.6c12.3,0,21,8.6,21,20.8s-8.7,20.6-21,20.6s-21-8.5-21-20.6S92.7,366.6,104.9,366.6z M104.9,400.6
			c7.7,0,12.9-5.3,12.9-13.2s-5.2-13.3-12.9-13.3S92,379.6,92,387.4S97.3,400.6,104.9,400.6L104.9,400.6z"/>
		<path class="st3" d="M180.4,230.3l-5.6,5.6l-28.4-28.4l5.1-5.1l35.7,3.4l-19.5-19.5l5.6-5.6l28.4,28.4l-5.1,5.2l-35.4-3.2
			L180.4,230.3z"/>
		<path class="st3" d="M192.1,160.8c8.7-8.7,21-8.8,29.6-0.2s8.4,20.8-0.3,29.5s-20.8,8.9-29.4,0.3S183.5,169.5,192.1,160.8z
			 M216.1,184.8c5.5-5.5,5.4-12.9-0.2-18.5s-13.1-5.7-18.5-0.3s-5.2,13,0.3,18.5S210.8,190.2,216.1,184.8L216.1,184.8z"/>
	</g>
</g>
</svg>
