<?xml version="1.0" encoding="utf-8"?>
<!-- Generator: Adobe Illustrator 25.2.3, SVG Export Plug-In . SVG Version: 6.00 Build 0)  -->
<svg version="1.1" id="Calque_1" xmlns="http://www.w3.org/2000/svg" xmlns:xlink="http://www.w3.org/1999/xlink" x="0px" y="0px"
	 viewBox="0 0 1002.2 576.2" style="enable-background:new 0 0 1002.2 576.2;" xml:space="preserve">
<style type="text/css">
	.st0{fill:#EDE9E6;}
	.st1{fill:#DDDDDD;}
	.st2{fill:#CECECE;}
	.st3{fill:#C1C1C1;}
	.st4{fill:#B5B5B5;}
	.st5{fill:#AAAAAA;}
	.st6{fill:#A0A0A0;}
	.st7{fill:#989898;}
	.st8{fill:#FFFFFF;}
	.st9{fill:#3A3A3A;}
	.st10{font-family:'Fieldwork-Geo-Regular';}
	.st11{font-size:41.61px;}
</style>
<rect x="126.6" y="547.9" class="st0" width="749.1" height="27.7"/>
<polygon class="st1" points="501.1,142.2 714.1,350.3 927.1,558.3 501.1,558.3 75.1,558.3 288.1,350.3 "/>
<polygon class="st2" points="501.1,204.6 714.1,381.5 927.1,558.3 501.1,558.3 75.1,558.3 288.1,381.5 "/>
<polygon class="st3" points="501.1,267 714.1,412.7 927.1,558.3 501.1,558.3 75.1,558.3 288.1,412.7 "/>
<polygon class="st4" points="501.1,315.6 714.1,437 927.1,558.3 501.1,558.3 75.1,558.3 288.1,437 "/>
<polygon class="st5" points="501.1,364.1 714.1,461.2 927.1,558.3 501.1,558.3 75.1,558.3 288.1,461.2 "/>
<polygon class="st6" points="501.1,412.7 714.1,485.5 927.1,558.3 501.1,558.3 75.1,558.3 288.1,485.5 "/>
<polygon class="st7" points="501.1,482 714.1,520.2 927.1,558.3 501.1,558.3 75.1,558.3 288.1,520.2 "/>
<image style="overflow:visible;opacity:0.1;enable-background:new    ;" width="267" height="113" xlink:href="E82B277247B4FB22.png"  transform="matrix(1 0 0 1 364.11 -3.89)">
</image>
<path class="st8" d="M613.2,0H381.9c-7.9,0-14.4,6.4-14.4,14.4v51c0,7.9,6.4,14.4,14.3,14.4c0,0,0,0,0,0h100.7l8,12l8.9,13.2
	c0.6,0.8,1.8,1,2.6,0.4c0.2-0.1,0.3-0.3,0.4-0.4l8.9-13.3l8-12h93.8c7.9,0,14.4-6.4,14.4-14.4v-51C627.6,6.4,621.2,0,613.2,0z"/>
<path class="st0" d="M613.2,1c7.4,0,13.4,6,13.4,13.4v51c0,7.4-6,13.4-13.4,13.4h-94.3l-0.3,0.4l-8,12l-8.9,13.3
	c-0.3,0.4-0.9,0.4-1.2,0.1c0,0,0,0-0.1-0.1l-8.9-13.3l-8-12l-0.3-0.4H381.9c-7.4,0-13.4-6-13.4-13.4v-51c0-7.4,6-13.4,13.4-13.4
	H613.2 M613.2,0H381.9c-7.9,0-14.4,6.4-14.4,14.4v51c0,7.9,6.4,14.4,14.3,14.4c0,0,0,0,0,0h100.7l8,12l8.9,13.2
	c0.6,0.8,1.8,1,2.6,0.4c0.2-0.1,0.3-0.3,0.4-0.4l8.9-13.3l8-12h93.8c7.9,0,14.4-6.4,14.4-14.4v-51C627.6,6.4,621.2,0,613.2,0z"/>
<text transform="matrix(1 0 0 1 400.21 54.6)" class="st9 st10 st11">Alsacienne</text>
</svg>
