<?xml version="1.0" encoding="utf-8"?>
<!-- Generator: Adobe Illustrator 25.2.3, SVG Export Plug-In . SVG Version: 6.00 Build 0)  -->
<svg version="1.1" id="Calque_1" xmlns="http://www.w3.org/2000/svg" xmlns:xlink="http://www.w3.org/1999/xlink" x="0px" y="0px"
	 viewBox="0 0 1002.2 299.5" style="enable-background:new 0 0 1002.2 299.5;" xml:space="preserve">
<style type="text/css">
	.st0{fill:#EDE9E6;}
	.st1{fill:#DDDDDD;}
	.st2{fill:#CECECE;}
	.st3{fill:#FFFFFF;}
	.st4{fill:#3A3A3A;}
	.st5{font-family:'Fieldwork-Geo-Regular';}
	.st6{font-size:41.61px;}
</style>
<rect x="118.3" y="270.5" class="st0" width="749.1" height="27.7"/>
<polygon class="st1" points="492.9,142.2 705.9,211.5 918.9,280.9 492.9,280.9 66.9,280.9 279.9,211.5 "/>
<polygon class="st2" points="492.9,204.6 705.9,242.8 918.9,280.9 492.9,280.9 66.9,280.9 279.9,242.8 "/>
<image style="overflow:visible;opacity:0.1;enable-background:new    ;" width="413" height="113" xlink:href="70EC82E18034F9BF.png"  transform="matrix(1 0 0 1 282.61 -3.27)">
</image>
<path class="st3" d="M677.8,0h-377c-7.9,0-14.4,6.4-14.4,14.4v51c0,7.9,6.4,14.4,14.4,14.4h173.6l8,12l8.9,13.3
	c0.6,0.8,1.7,1,2.6,0.4c0.2-0.1,0.3-0.3,0.4-0.4l8.9-13.3l8-12h166.6c7.9,0,14.4-6.4,14.4-14.4v-51C692.2,6.4,685.8,0,677.8,0z"/>
<path class="st0" d="M677.8,1c7.4,0,13.4,6,13.4,13.4v51c0,7.4-6,13.4-13.4,13.4H510.7l-0.3,0.4l-8,12l-8.9,13.3
	c-0.3,0.4-0.9,0.4-1.2,0.1c0,0-0.1,0-0.1-0.1l-8.9-13.3l-8-12l-0.3-0.4H300.9c-7.4,0-13.4-6-13.4-13.4v-51c0-7.4,6-13.4,13.4-13.4
	H677.8 M677.8,0h-377c-7.9,0-14.4,6.4-14.4,14.4v51c0,7.9,6.4,14.4,14.4,14.4h173.6l8,12l8.9,13.3c0.3,0.5,0.9,0.8,1.5,0.7
	c0.6,0,1.1-0.3,1.5-0.7l8.9-13.3l8-12h166.7c7.9,0,14.4-6.4,14.4-14.4v-51C692.2,6.4,685.8,0,677.8,0z"/>
<text transform="matrix(1 0 0 1 326.09 54.6)" class="st4 st5 st6">M</text>
<text transform="matrix(1 0 0 1 362.83 54.6)" class="st4 st5 st6">édi</text>
<text transform="matrix(1 0 0 1 421.1 54.6)" class="st4 st5 st6">t</text>
<text transform="matrix(1 0 0 1 436.65 54.6)" class="st4 st5 st6">er</text>
<text transform="matrix(1 0 0 1 474.71 54.6)" class="st4 st5 st6">r</text>
<text transform="matrix(1 0 0 1 489.34 54.6)" class="st4 st5 st6">anéenne</text>
</svg>
