<?xml version="1.0" encoding="utf-8"?>
<!-- Generator: Adobe Illustrator 25.2.3, SVG Export Plug-In . SVG Version: 6.00 Build 0)  -->
<svg version="1.1" id="Calque_1" xmlns="http://www.w3.org/2000/svg" xmlns:xlink="http://www.w3.org/1999/xlink" x="0px" y="0px"
	 viewBox="0 0 1002.2 403.3" style="enable-background:new 0 0 1002.2 403.3;" xml:space="preserve">
<style type="text/css">
	.st0{fill:#EDE9E6;}
	.st1{fill:#DDDDDD;}
	.st2{fill:#CECECE;}
	.st3{fill:#C1C1C1;}
	.st4{fill:#B5B5B5;}
	.st5{fill:#FFFFFF;}
	.st6{fill:#3A3A3A;}
	.st7{font-family:'Fieldwork-Geo-Regular';}
	.st8{font-size:41.61px;}
</style>
<rect x="109.1" y="374.5" class="st0" width="749.1" height="27.7"/>
<polygon class="st1" points="483.6,142.2 696.6,263.6 909.6,384.9 483.6,384.9 57.6,384.9 270.6,263.6 "/>
<polygon class="st2" points="483.6,190.7 696.6,287.8 909.6,384.9 483.6,384.9 57.6,384.9 270.6,287.8 "/>
<polygon class="st3" points="483.6,239.3 696.6,312.1 909.6,384.9 483.6,384.9 57.6,384.9 270.6,312.1 "/>
<polygon class="st4" points="483.6,308.6 696.6,346.8 909.6,384.9 483.6,384.9 57.6,384.9 270.6,346.8 "/>
<image style="overflow:visible;opacity:0.1;enable-background:new    ;" width="267" height="113" xlink:href="E6FC19A81DB120DE.png"  transform="matrix(1 0 0 1 346.61 -3.86)">
</image>
<path class="st5" d="M595.8,0H364.4C356.5,0,350,6.4,350,14.3c0,0,0,0,0,0v51c0,7.9,6.4,14.4,14.4,14.4h100.8l8,12l8.9,13.3
	c0.6,0.8,1.8,1,2.6,0.4c0.2-0.1,0.3-0.3,0.4-0.4l8.9-13.3l8-12h93.8c7.9,0,14.4-6.4,14.4-14.4v-51C610.1,6.4,603.7,0,595.8,0z"/>
<path class="st0" d="M595.8,1c7.4,0,13.4,6,13.4,13.4v51c0,7.4-6,13.4-13.4,13.4h-94.3l-0.3,0.4l-8,12l-8.9,13.3
	c-0.3,0.4-0.9,0.4-1.2,0.1c0,0,0,0-0.1-0.1L474,91.2l-8-12l-0.3-0.4H364.4c-7.4,0-13.4-6-13.4-13.4c0,0,0,0,0,0v-51
	C351,7,357,1,364.4,1c0,0,0,0,0,0H595.8 M595.8,0H364.4C356.5,0,350,6.4,350,14.3c0,0,0,0,0,0v51c0,7.9,6.4,14.4,14.4,14.4h100.8
	l8,12l8.9,13.3c0.6,0.8,1.8,1,2.6,0.4c0.2-0.1,0.3-0.3,0.4-0.4l8.9-13.3l8-12h93.8c7.9,0,14.4-6.4,14.4-14.4v-51
	C610.1,6.4,603.7,0,595.8,0z"/>
<text transform="matrix(1 0 0 1 389.66 54.6)" class="st6 st7 st8">Classique</text>
</svg>
