<?xml version="1.0" encoding="utf-8"?>
<!-- Generator: Adobe Illustrator 25.2.3, SVG Export Plug-In . SVG Version: 6.00 Build 0)  -->
<svg version="1.1" id="Calque_1" xmlns="http://www.w3.org/2000/svg" xmlns:xlink="http://www.w3.org/1999/xlink" x="0px" y="0px"
	 viewBox="0 0 1002.2 507.2" style="enable-background:new 0 0 1002.2 507.2;" xml:space="preserve">
<style type="text/css">
	.st0{fill:#EDE9E6;}
	.st1{fill:#DDDDDD;}
	.st2{fill:#CECECE;}
	.st3{fill:#C1C1C1;}
	.st4{fill:#B5B5B5;}
	.st5{fill:#AAAAAA;}
	.st6{fill:#A0A0A0;}
	.st7{fill:#FFFFFF;}
	.st8{fill:#3A3A3A;}
	.st9{font-family:'Fieldwork-Geo-Regular';}
	.st10{font-size:41.61px;}
</style>
<rect x="123" y="478.6" class="st0" width="749.1" height="27.7"/>
<polygon class="st1" points="497.5,135.2 710.5,312.1 923.5,489 497.5,489 71.5,489 284.5,312.1 "/>
<polygon class="st2" points="497.5,197.7 710.5,343.3 923.5,489 497.5,489 71.5,489 284.5,343.3 "/>
<polygon class="st3" points="497.5,246.2 710.5,367.6 923.5,489 497.5,489 71.5,489 284.5,367.6 "/>
<polygon class="st4" points="497.5,294.8 710.5,391.9 923.5,489 497.5,489 71.5,489 284.5,391.9 "/>
<polygon class="st5" points="497.5,343.3 710.5,416.1 923.5,489 497.5,489 71.5,489 284.5,416.1 "/>
<polygon class="st6" points="497.5,412.7 710.5,450.8 923.5,489 497.5,489 71.5,489 284.5,450.8 "/>
<image style="overflow:visible;opacity:0.1;enable-background:new    ;" width="309" height="106" xlink:href="E8011032A56D55B7.png"  transform="matrix(1 0 0 1 342.61 -3.57)">
</image>
<path class="st7" d="M633.9,0h-273c-7.9,0-14.4,6.4-14.4,14.4v44.1c0,7.9,6.4,14.4,14.4,14.4c0,0,0,0,0,0H479l8,12l8.9,13.3
	c0.6,0.8,1.8,1,2.6,0.4c0.2-0.1,0.3-0.2,0.4-0.4l8.9-13.3l8-12h118.1c7.9,0,14.4-6.4,14.4-14.4v0V14.4C648.3,6.4,641.8,0,633.9,0
	C633.9,0,633.9,0,633.9,0z"/>
<path class="st0" d="M633.9,1c7.4,0,13.4,6,13.4,13.4v44.1c0,7.4-6,13.4-13.4,13.4H515.3l-0.3,0.4l-8,12l-8.9,13.3
	c-0.2,0.2-0.4,0.3-0.6,0.3c-0.2,0-0.5-0.1-0.6-0.3l-8.9-13.3l-8-12l-0.3-0.4H360.9c-7.4,0-13.4-6-13.4-13.4V14.4
	c0-7.4,6-13.4,13.4-13.4H633.9 M633.9,0h-273c-7.9,0-14.4,6.4-14.4,14.4v44.1c0,7.9,6.4,14.4,14.4,14.4c0,0,0,0,0,0H479l8,12
	l8.9,13.3c0.6,0.8,1.8,1,2.6,0.4c0.2-0.1,0.3-0.3,0.4-0.4l8.9-13.3l8-12h118.1c7.9,0,14.4-6.4,14.4-14.4v0V14.4
	C648.3,6.4,641.8,0,633.9,0C633.9,0,633.9,0,633.9,0L633.9,0z"/>
<text transform="matrix(1 0 0 1 393.12 47.66)" class="st8 st9 st10">Alsacienne</text>
</svg>
