<?xml version="1.0" encoding="utf-8"?>
<!-- Generator: Adobe Illustrator 25.3.1, SVG Export Plug-In . SVG Version: 6.00 Build 0)  -->
<svg version="1.1" id="Mode_Isolation" xmlns="http://www.w3.org/2000/svg" xmlns:xlink="http://www.w3.org/1999/xlink" x="0px"
	 y="0px" viewBox="0 0 800 800" style="enable-background:new 0 0 800 800;" xml:space="preserve">
<style type="text/css">
	.st0{fill:#FFFFFF;}
</style>
<path class="st0" d="M398.8,0C193,0,23.6,155.3,1.2,355.1h364.5L272.6,262c-17.6-17.5-17.6-46-0.1-63.5s46-17.6,63.5-0.1l168,168
	c18.5,16,20.6,43.9,4.6,62.4c-1.6,1.9-3.4,3.7-5.4,5.2L336,601.5c-17.8,17.2-46.2,16.7-63.5-1.1c-16.8-17.4-16.8-44.9,0-62.3
	l93.2-93.2H1.2C23.5,644.6,193,800,398.8,800c220.9,0,400-179.1,400-400S619.7,0,398.8,0z"/>
</svg>
