<?xml version="1.0" encoding="utf-8"?>
<!-- Generator: Adobe Illustrator 25.3.0, SVG Export Plug-In . SVG Version: 6.00 Build 0)  -->
<svg version="1.1" id="Calque_1" xmlns="http://www.w3.org/2000/svg" xmlns:xlink="http://www.w3.org/1999/xlink" x="0px" y="0px"
	 viewBox="0 0 800 800" style="enable-background:new 0 0 800 800;" xml:space="preserve">
<style type="text/css">
	.st0{fill:#F33F04;}
	.st1{fill:#FFFFFF;}
	.st2{fill:#EDE9E6;}
	.st3{fill:#FBA03D;}
</style>
<g>
	<g id="Calque_1_1_">
		<polygon class="st0" points="117.2,117.2 189.2,136.4 261.2,155.8 208.5,208.5 155.8,261.2 136.4,189.2 		"/>
		
			<image style="overflow:visible;opacity:0.1;enable-background:new    ;" width="630" height="630" xlink:href="6B88AE285D69CCC5.png"  transform="matrix(1 0 0 1 85 84)">
		</image>
		<path class="st1" d="M400,100.5c165.4,0,299.5,134.1,299.5,299.5S565.4,699.5,400,699.5S100.5,565.4,100.5,400
			S234.6,100.5,400,100.5z"/>
		<path class="st2" d="M400,121.3c153.7,0,278.7,125,278.7,278.7S553.7,678.7,400,678.7S121.3,553.7,121.3,400
			S246.3,121.3,400,121.3 M400,100.5c-165.4,0-299.5,134.1-299.5,299.5S234.6,699.5,400,699.5S699.5,565.4,699.5,400
			S565.4,100.5,400,100.5L400,100.5z"/>
		<path class="st3" d="M259.1,480.3h-31.5V319.7h28.6l91.2,110.2V319.7h31.5v160.6h-29.1l-90.7-109V480.3z"/>
		<path class="st3" d="M488.4,317.3c49,0,83.9,34.5,83.9,83s-34.9,82.3-83.9,82.3c-48.8,0-83.8-33.8-83.8-82.3
			S439.6,317.3,488.4,317.3z M488.5,453c30.8,0,51.5-21.3,51.5-52.7c0-31.2-20.7-53.1-51.5-53.1c-30.6,0-51.5,21.9-51.5,53.1
			C437.1,431.7,458,453,488.5,453z"/>
	</g>
</g>
</svg>
