<?xml version="1.0" encoding="utf-8"?>
<!-- Generator: Adobe Illustrator 25.3.0, SVG Export Plug-In . SVG Version: 6.00 Build 0)  -->
<svg version="1.1" id="Calque_1" xmlns="http://www.w3.org/2000/svg" xmlns:xlink="http://www.w3.org/1999/xlink" x="0px" y="0px"
	 viewBox="0 0 800 800" style="enable-background:new 0 0 800 800;" xml:space="preserve">
<style type="text/css">
	.st0{fill:#F33F04;}
	.st1{fill:#FFFFFF;}
	.st2{fill:#FBA03D;}
</style>
<g>
	<g id="Calque_1_1_">
		<polygon class="st0" points="682.8,117.2 663.5,189.2 644.2,261.2 591.5,208.5 538.8,155.8 610.8,136.4 		"/>
		
			<image style="overflow:visible;opacity:0.1;enable-background:new    ;" width="630" height="630" xlink:href="CA0EBEA4AF00022F.png"  transform="matrix(1 0 0 1 85 85)">
		</image>
		<path class="st1" d="M400,100.5c165.4,0,299.5,134.1,299.5,299.5S565.4,699.5,400,699.5S100.5,565.4,100.5,400
			S234.6,100.5,400,100.5z"/>
		<path class="st0" d="M400,100.5c165.4,0,299.5,134.1,299.5,299.5S565.4,699.5,400,699.5S100.5,565.4,100.5,400
			S234.6,100.5,400,100.5z"/>
		<path class="st2" d="M400,121.3c153.7,0,278.7,125,278.7,278.7S553.7,678.7,400,678.7S121.3,553.7,121.3,400
			S246.3,121.3,400,121.3 M400,100.5c-165.4,0-299.5,134.1-299.5,299.5S234.6,699.5,400,699.5S699.5,565.4,699.5,400
			S565.4,100.5,400,100.5L400,100.5z"/>
		<path class="st1" d="M279.4,480.3h-31.5V319.7h28.6l91.2,110.2V319.7h31.5v160.6h-29.1l-90.7-109V480.3z"/>
		<path class="st1" d="M552.2,480.3H433V319.7h117.4v27.7h-85.9v37h75.2v27.7h-75.2v40.7h87.7V480.3z"/>
	</g>
</g>
</svg>
