<?xml version="1.0" encoding="utf-8"?>
<!-- Generator: Adobe Illustrator 25.3.0, SVG Export Plug-In . SVG Version: 6.00 Build 0)  -->
<svg version="1.1" id="Calque_1" xmlns="http://www.w3.org/2000/svg" xmlns:xlink="http://www.w3.org/1999/xlink" x="0px" y="0px"
	 viewBox="0 0 800 800" style="enable-background:new 0 0 800 800;" xml:space="preserve">
<style type="text/css">
	.st0{fill:#F33F04;}
	.st1{fill:#FFFFFF;}
	.st2{fill:#FBA03D;}
</style>
<g>
	<g id="Calque_1_1_">
		<polygon class="st0" points="117.2,682.8 136.4,610.8 155.8,538.8 208.5,591.5 261.2,644.2 189.2,663.5 		"/>
		
			<image style="overflow:visible;opacity:0.1;enable-background:new    ;" width="630" height="630" xlink:href="E407E9AD9B3321DE.png"  transform="matrix(1 0 0 1 85 85)">
		</image>
		<path class="st1" d="M400,100.5c165.4,0,299.5,134.1,299.5,299.5S565.4,699.5,400,699.5S100.5,565.4,100.5,400
			S234.6,100.5,400,100.5z"/>
		<path class="st0" d="M400,100.5c165.4,0,299.5,134.1,299.5,299.5S565.4,699.5,400,699.5S100.5,565.4,100.5,400
			S234.6,100.5,400,100.5z"/>
		<path class="st2" d="M400,121.3c153.7,0,278.7,125,278.7,278.7S553.7,678.7,400,678.7S121.3,553.7,121.3,400
			S246.3,121.3,400,121.3 M400,100.5c-165.4,0-299.5,134.1-299.5,299.5S234.6,699.5,400,699.5S699.5,565.4,699.5,400
			S565.4,100.5,400,100.5L400,100.5z"/>
		<path class="st1" d="M359.4,327.4l-2.7,28.4c-8.3-5-28.8-10.3-45.9-10.3s-29.4,5.3-29.4,18.6s11.2,15.7,22.1,19l22.9,6.9
			c26.1,7.8,41.1,19.2,41.1,43.8c0,28.5-23.9,49-60.1,49c-22.4,0-47.8-5.7-58.7-11.8l2.6-28.5c7.8,5,33.6,11.9,53.4,11.9
			c16.7,0,30-5.9,30-19c0-10.2-6-14.7-19.4-18.3l-25.1-7c-20.2-5.6-41.4-16.7-41.4-43.4c0-29.7,23-49.3,60-49.3
			C330.8,317.3,346.8,321.7,359.4,327.4z"/>
		<path class="st1" d="M467.5,317.3c49,0,83.9,34.5,83.9,83s-34.9,82.3-83.9,82.3c-48.8,0-83.8-33.8-83.8-82.3
			S418.7,317.3,467.5,317.3z M467.6,453c30.8,0,51.5-21.3,51.5-52.7c0-31.2-20.7-53.1-51.5-53.1c-30.6,0-51.5,21.9-51.5,53.1
			C416.1,431.7,437,453,467.6,453z"/>
	</g>
</g>
</svg>
