<?xml version="1.0" encoding="utf-8"?>
<!-- Generator: Adobe Illustrator 25.3.0, SVG Export Plug-In . SVG Version: 6.00 Build 0)  -->
<svg version="1.1" id="Calque_1" xmlns="http://www.w3.org/2000/svg" xmlns:xlink="http://www.w3.org/1999/xlink" x="0px" y="0px"
	 viewBox="0 0 800 800" style="enable-background:new 0 0 800 800;" xml:space="preserve">
<style type="text/css">
	.st0{fill:#F33F04;}
	.st1{fill:#FFFFFF;}
	.st2{fill:#EDE9E6;}
	.st3{fill:#FBA03D;}
</style>
<g>
	<g id="Calque_1_1_">
		<polygon class="st0" points="400,800 362.7,735.4 325.4,670.9 400,670.9 474.6,670.9 437.3,735.4 		"/>
		
			<image style="overflow:visible;opacity:0.1;enable-background:new    ;" width="630" height="630" xlink:href="FFA38DB238B8A3C0.png"  transform="matrix(1 0 0 1 85 85)">
		</image>
		<path class="st1" d="M400,100.5c165.4,0,299.5,134.1,299.5,299.5S565.4,699.5,400,699.5S100.5,565.4,100.5,400
			S234.6,100.5,400,100.5z"/>
		<path class="st2" d="M400,121.3c153.7,0,278.7,125,278.7,278.7S553.7,678.7,400,678.7S121.3,553.7,121.3,400
			S246.3,121.3,400,121.3 M400,100.5c-165.4,0-299.5,134.1-299.5,299.5S234.6,699.5,400,699.5S699.5,565.4,699.5,400
			S565.4,100.5,400,100.5L400,100.5z"/>
		<path class="st3" d="M451.4,327.4l-2.7,28.4c-8.3-5-28.8-10.3-45.9-10.3s-29.4,5.3-29.4,18.6s11.2,15.7,22.1,19l22.9,6.9
			c26.1,7.8,41.1,19.2,41.1,43.8c0,28.5-23.9,49-60.1,49c-22.4,0-47.8-5.7-58.7-11.8l2.6-28.5c7.8,5,33.6,11.9,53.4,11.9
			c16.7,0,30-5.9,30-19c0-10.2-6-14.7-19.4-18.3l-25.1-7c-20.2-5.6-41.4-16.7-41.4-43.4c0-29.7,23-49.3,60-49.3
			C422.8,317.3,438.8,321.7,451.4,327.4z"/>
	</g>
</g>
</svg>
